HIERARCHY
ROOT root
{
	OFFSET	0	13.1	24.9
	CHANNELS 6  Xposition Yposition Zposition Xrotation Yrotation Zrotation
	JOINT spine_1
	{
		OFFSET	0	9.99999	0
		CHANNELS 3  Xrotation Yrotation Zrotation
		JOINT spine_2
		{
			OFFSET	0	112	-10
			CHANNELS 3  Xrotation Yrotation Zrotation
			JOINT spine_3
			{
				OFFSET	0	206.5	19.3
				CHANNELS 3  Xrotation Yrotation Zrotation
				JOINT spine_4
				{
					OFFSET	0	110.4	14.6
					CHANNELS 3  Xrotation Yrotation Zrotation
					JOINT neck_1
					{
						OFFSET	0	71.8	-50.3
						CHANNELS 3  Xrotation Yrotation Zrotation
						JOINT neck_2
						{
							OFFSET	0	86.2	-25.8
							CHANNELS 3  Xrotation Yrotation Zrotation
							JOINT head_ee
							{
								OFFSET	0	179.8	-8.7
								CHANNELS 3  Xrotation Yrotation Zrotation
								End Site
								{
									OFFSET	1	0	0
								}
							}
						}
					}
					JOINT left_clavicle
					{
						OFFSET	-43.2	22.4	-70.8
						CHANNELS 3  Xrotation Yrotation Zrotation
						JOINT left_shoulder
						{
							OFFSET	-93.9	-5.79999	48.7
							CHANNELS 3  Xrotation Yrotation Zrotation
							JOINT left_elbow
							{
								OFFSET	-291.4	-30.8	15.2
								CHANNELS 3  Xrotation Yrotation Zrotation
								JOINT left_lowarm_twist
								{
									OFFSET	-110.7	-3.89999	13.6
									CHANNELS 3  Xrotation Yrotation Zrotation
									JOINT left_hand
									{
										OFFSET	-110.7	-3.89999	13.6
										CHANNELS 3  Xrotation Yrotation Zrotation
										JOINT left_ee
										{
											OFFSET	-80.8	-5.10001	12.1
											CHANNELS 3  Xrotation Yrotation Zrotation
											End Site
											{
												OFFSET	1	0	0
											}
										}
									}
								}
							}
						}
					}
					JOINT right_clavicle
					{
						OFFSET	43.2	22.4	-70.8
						CHANNELS 3  Xrotation Yrotation Zrotation
						JOINT right_shoulder
						{
							OFFSET	93.9	-5.79999	48.7
							CHANNELS 3  Xrotation Yrotation Zrotation
							JOINT right_elbow
							{
								OFFSET	291.4	-30.8	15.2
								CHANNELS 3  Xrotation Yrotation Zrotation
								JOINT right_lowarm_twist
								{
									OFFSET	110.7	-3.89999	13.6
									CHANNELS 3  Xrotation Yrotation Zrotation
									JOINT right_hand
									{
										OFFSET	110.7	-3.89999	13.6
										CHANNELS 3  Xrotation Yrotation Zrotation
										JOINT right_ee
										{
											OFFSET	80.8	-5.10001	12.1
											CHANNELS 3  Xrotation Yrotation Zrotation
											End Site
											{
												OFFSET	1	0	0
											}
										}
									}
								}
							}
						}
					}
				}
			}
		}
	}
	JOINT left_hip
	{
		OFFSET	-82.8	-127.5	0.300001
		CHANNELS 3  Xrotation Yrotation Zrotation
		JOINT left_knee
		{
			OFFSET	-28.2	-396.7	2.2
			CHANNELS 3  Xrotation Yrotation Zrotation
			JOINT left_ankle
			{
				OFFSET	-11.7	-411.3	35.4
				CHANNELS 3  Xrotation Yrotation Zrotation
				JOINT left_toes
				{
					OFFSET	0	-60	-88.6
					CHANNELS 3  Xrotation Yrotation Zrotation
					JOINT left_foot_ee
					{
						OFFSET	-22.5	-16.5	-42.2
						CHANNELS 3  Xrotation Yrotation Zrotation
						End Site
						{
							OFFSET	1	0	0
						}
					}
				}
			}
		}
	}
	JOINT right_hip
	{
		OFFSET	82.8	-127.5	0.300001
		CHANNELS 3  Xrotation Yrotation Zrotation
		JOINT right_knee
		{
			OFFSET	28.2	-396.7	2.2
			CHANNELS 3  Xrotation Yrotation Zrotation
			JOINT right_ankle
			{
				OFFSET	11.7	-411.3	35.4
				CHANNELS 3  Xrotation Yrotation Zrotation
				JOINT right_toes
				{
					OFFSET	0	-60	-88.6
					CHANNELS 3  Xrotation Yrotation Zrotation
					JOINT right_foot_ee
					{
						OFFSET	22.5	-16.5	-42.2
						CHANNELS 3  Xrotation Yrotation Zrotation
						End Site
						{
							OFFSET	1	0	0
						}
					}
				}
			}
		}
	}
}
MOTION
Frames: 5
Frame Time: 0.02
1251.22637046 740.499 -1709.92187067 16.3716035685 20.4047434143 -10.3324721839 -9.03149 0.896338 3.40809 -9.02529 0.677789 3.45814 -8.96372 -0.612663 3.47026 -8.98052 -0.057267 3.52339 6.41727 15.6988 -4.21901 7.98625 30.3553 -4.78496 -0.0 0.0 -0.0 4.24801 10.7309 8.54167 -0.641706 -16.5927 66.8704 0.354889 -9.971 0.0309583 60.1702 -1.78911 -7.12361 -7.08149 -13.9857 -67.1579 -0.0 0.0 -0.0 10.4958 16.0146 -20.7535 1.55308 52.328 -50.1703 0.740796 20.1515 -0.131634 -84.3494 8.3705 -5.2001 -11.2022 -28.3544 67.0216 0.0 0.0 0.0 -0.956099 17.1826 2.15815 -40.2055 -0.479892 6.02702 0.0790241 16.85 -0.0116889 -40.2244 0.0 0.0 -0.0 0.0 -0.0 -2.30458 33.542 -5.11705 -9.74161 -0.276884 -1.46759 11.0386 -5.36265 1.56476 21.4987 -0.0 -0.0 0.0 0.0 0.0 
1257.07614354 740.499 -1712.84224197 16.2287934407 19.0426273574 -9.90934313137 -9.03149 0.896338 3.40809 -9.02529 0.677789 3.45814 -8.96372 -0.612663 3.47026 -8.98052 -0.057267 3.52339 6.41727 15.6988 -4.21901 7.98625 30.3553 -4.78496 -0.0 0.0 -0.0 4.24801 10.7309 8.54167 -0.641706 -16.5927 66.8704 0.354889 -9.971 0.0309583 60.1702 -1.78911 -7.12361 -7.08149 -13.9857 -67.1579 -0.0 0.0 -0.0 10.4958 16.0146 -20.7535 1.55308 52.328 -50.1703 0.740796 20.1515 -0.131634 -84.3494 8.3705 -5.2001 -11.2022 -28.3544 67.0216 0.0 0.0 0.0 -0.956099 17.1826 2.15815 -40.2055 -0.479892 6.02702 0.0790241 16.85 -0.0116889 -40.2244 0.0 0.0 -0.0 0.0 -0.0 -2.30458 33.542 -5.11705 -9.74161 -0.276884 -1.46759 11.0386 -5.36265 1.56476 21.4987 -0.0 -0.0 0.0 0.0 0.0 
1238.43171257 739.819 -1711.61059689 16.043285691 19.9289825719 -10.6577149456 -9.06335 0.529982 3.59215 -9.05623 0.300484 3.61855 -9.01694 -1.02641 3.48308 -9.03357 -0.463821 3.60128 5.67833 15.1746 -4.81453 7.18438 30.1107 -5.31375 -0.0 0.0 -0.0 4.75478 12.83 9.42589 -1.87654 -16.3519 67.2697 0.414037 -11.5909 0.0420233 61.4146 -1.90147 -7.23686 -7.37445 -11.7632 -70.6203 -0.0 0.0 -0.0 11.5604 15.032 -23.1952 -4.13243 52.1045 -41.1023 1.10542 28.7039 -0.282843 -83.5299 8.26767 -5.21832 -11.4259 -29.0992 68.7013 0.0 0.0 0.0 2.66487 16.8821 2.24273 -44.0411 -0.743669 6.55451 5.75586 13.8317 -0.833518 -40.196 0.0 0.0 -0.0 0.0 -0.0 -4.27374 34.6086 -3.52711 -7.17429 -0.228218 -1.07667 11.3373 -7.4826 1.60392 18.5739 -0.0 -0.0 0.0 0.0 0.0 
1200.8192544 750.453 -1722.86848068 14.4724686457 22.6451415057 -11.5167785256 -8.61266 0.421396 3.58781 -8.60552 0.192392 3.60732 -8.57465 -1.09676 3.44213 -8.59077 -0.539743 3.57194 5.64645 13.3931 -6.09409 7.05065 28.1707 -6.80879 -0.0 0.0 -0.0 5.19613 15.397 10.1342 -5.25897 -16.0469 68.8558 0.685521 -18.7569 0.113224 65.5487 -2.29203 -7.59525 -7.79877 -7.70934 -75.7001 -0.0 0.0 -0.0 11.6811 15.0948 -23.4672 -7.90527 51.4302 -32.8438 1.56543 37.7897 -0.535838 -81.8295 8.05345 -5.25137 -12.1072 -32.5498 68.4806 0.0 0.0 0.0 12.1579 13.9711 -1.21869 -49.9668 -1.21928 7.33228 17.5372 8.98011 -2.42187 -40.181 0.0 0.0 -0.0 0.0 -0.0 -8.54238 36.6398 -0.308912 -4.01326 -0.144308 -0.598881 12.717 -14.1566 1.80136 15.318 -0.0 -0.0 0.0 0.0 0.0 
1180.53857656 739.633 -1738.52989076 14.6146395572 25.9683676969 -11.8960744195 -8.37466 0.36814 3.42758 -8.36813 0.149421 3.44403 -8.34261 -1.06583 3.27855 -8.35721 -0.534987 3.40555 7.71375 11.2952 -6.3131 8.97116 24.5492 -7.48602 -0.0 0.0 -0.0 5.9499 15.6837 11.3533 -7.95211 -17.4362 66.6443 0.68272 -18.6856 0.112325 69.8046 -2.72011 -7.93398 -7.85878 -6.24713 -75.2797 -0.0 0.0 -0.0 12.5555 20.7152 -25.161 -7.50594 49.5947 -31.5689 1.36756 34.1138 -0.419608 -81.1089 7.96234 -5.26344 -12.39 -33.9259 68.0853 0.0 0.0 0.0 14.0325 15.2233 -1.67446 -49.1834 -1.1518 7.23229 24.0387 4.60469 -3.22077 -40.1509 0.0 0.0 -0.0 0.0 -0.0 -3.32622 36.686 -3.21989 -13.9529 -0.318654 -2.11226 19.7431 -18.0627 2.74839 14.4157 -0.0 -0.0 0.0 0.0 0.0 
